<svg viewboxviewBox="0 0 240 240" xmlns="http://www.w3.org/2000/svg" xmlns:android="http://schemas.android.com/apk/res/android" height="24dp" viewportHeight="240" viewportWidth="240" width="24dp">
	<path fill="#000" name="Ellipse 1" d="m90 90c11.05 0 20 13.43 20 30c0 16.57 -8.95 30 -20 30c-11.05 0 -20 -13.43 -20 -30c0 -16.57 8.95 -30 20 -30zm60 0c11.05 0 20 13.43 20 30c0 16.57 -8.95 30 -20 30c-11.05 0 -20 -13.43 -20 -30c0 -16.57 8.95 -30 20 -30zm-30 -40c-55.23 0 -100 31.34 -100 70c0 38.66 44.77 70 100 70c55.23 0 100 -31.34 100 -70c0 -38.66 -44.77 -70 -100 -70z"/>
</svg>
